<svg xmlns="http://www.w3.org/2000/svg" xmlns:xlink="http://www.w3.org/1999/xlink" viewBox="0,0,256,256" width="64px" height="64px"><g fill="#eaeaea" fill-rule="nonzero" stroke="none" stroke-width="1" stroke-linecap="butt" stroke-linejoin="miter" stroke-miterlimit="10" stroke-dasharray="" stroke-dashoffset="0" font-family="none" font-weight="none" font-size="none" text-anchor="none" style="mix-blend-mode: normal"><g transform="scale(2,2)"><path d="M33.5,9c-7.2,0 -13,5.8 -13,13v80c0,7.2 5.8,13 13,13h61c7.2,0 13,-5.8 13,-13v-80c0,-7.2 -5.8,-13 -13,-13zM33.5,15h61c3.9,0 7,3.1 7,7v80c0,3.9 -3.1,7 -7,7h-61c-3.9,0 -7,-3.1 -7,-7v-80c0,-3.9 3.1,-7 7,-7zM33.5,22v15h61v-15zM37.5,51c-1.7,0 -3,1.3 -3,3c0,1.7 1.3,3 3,3h51c1.7,0 3,-1.3 3,-3c0,-1.7 -1.3,-3 -3,-3zM37.5,66c-1.7,0 -3,1.3 -3,3c0,1.7 1.3,3 3,3h51c1.7,0 3,-1.3 3,-3c0,-1.7 -1.3,-3 -3,-3zM37.5,81c-1.7,0 -3,1.3 -3,3c0,1.7 1.3,3 3,3h26.5c1.7,0 3,-1.3 3,-3c0,-1.7 -1.3,-3 -3,-3z"></path></g></g></svg>